<?xml version="1.0"?>
<svg xmlns="http://www.w3.org/2000/svg" viewBox="0 0 64 64" width="512" height="512"><g id="outline"><path d="M54,6H10a4,4,0,0,0-4,4V54a4,4,0,0,0,4,4H54a4,4,0,0,0,4-4V10A4,4,0,0,0,54,6ZM23,56H10a2,2,0,0,1-2-2V42H23Zm0-16H8V24H23Zm0-18H8V10a2,2,0,0,1,2-2H23ZM39,56H25V42H39Zm0-16H25V24H39Zm0-18H25V8H39ZM56,54a2,2,0,0,1-2,2H41V42H56Zm0-14H41V24H56Zm0-18H41V8H54a2,2,0,0,1,2,2Z"/><path d="M55,2H9A7.008,7.008,0,0,0,2,9V55a7.008,7.008,0,0,0,7,7H55a7.008,7.008,0,0,0,7-7V9A7.008,7.008,0,0,0,55,2Zm5,53a5.006,5.006,0,0,1-5,5H9a5.006,5.006,0,0,1-5-5V9A5.006,5.006,0,0,1,9,4H55a5.006,5.006,0,0,1,5,5Z"/><path d="M32,37a5,5,0,1,0-5-5A5.006,5.006,0,0,0,32,37Zm0-8a3,3,0,1,1-3,3A3,3,0,0,1,32,29Z"/><path d="M48,10a5,5,0,1,0,5,5A5.006,5.006,0,0,0,48,10Zm0,8a3,3,0,1,1,3-3A3,3,0,0,1,48,18Z"/><path d="M16,37a5,5,0,1,0-5-5A5.006,5.006,0,0,0,16,37Zm0-8a3,3,0,1,1-3,3A3,3,0,0,1,16,29Z"/><path d="M11.293,19.707a1,1,0,0,0,1.414,0L16,16.414l3.293,3.293a1,1,0,0,0,1.414-1.414L17.414,15l3.293-3.293a1,1,0,0,0-1.414-1.414L16,13.586l-3.293-3.293a1,1,0,0,0-1.414,1.414L14.586,15l-3.293,3.293A1,1,0,0,0,11.293,19.707Z"/><path d="M27.293,19.707a1,1,0,0,0,1.414,0L32,16.414l3.293,3.293a1,1,0,0,0,1.414-1.414L33.414,15l3.293-3.293a1,1,0,0,0-1.414-1.414L32,13.586l-3.293-3.293a1,1,0,0,0-1.414,1.414L30.586,15l-3.293,3.293A1,1,0,0,0,27.293,19.707Z"/><path d="M43.293,36.707a1,1,0,0,0,1.414,0L48,33.414l3.293,3.293a1,1,0,0,0,1.414-1.414L49.414,32l3.293-3.293a1,1,0,0,0-1.414-1.414L48,30.586l-3.293-3.293a1,1,0,0,0-1.414,1.414L46.586,32l-3.293,3.293A1,1,0,0,0,43.293,36.707Z"/><path d="M43.293,53.707a1,1,0,0,0,1.414,0L48,50.414l3.293,3.293a1,1,0,0,0,1.414-1.414L49.414,49l3.293-3.293a1,1,0,0,0-1.414-1.414L48,47.586l-3.293-3.293a1,1,0,0,0-1.414,1.414L46.586,49l-3.293,3.293A1,1,0,0,0,43.293,53.707Z"/><path d="M27.293,53.707a1,1,0,0,0,1.414,0L32,50.414l3.293,3.293a1,1,0,0,0,1.414-1.414L33.414,49l3.293-3.293a1,1,0,0,0-1.414-1.414L32,47.586l-3.293-3.293a1,1,0,0,0-1.414,1.414L30.586,49l-3.293,3.293A1,1,0,0,0,27.293,53.707Z"/><path d="M11.293,53.707a1,1,0,0,0,1.414,0L16,50.414l3.293,3.293a1,1,0,0,0,1.414-1.414L17.414,49l3.293-3.293a1,1,0,0,0-1.414-1.414L16,47.586l-3.293-3.293a1,1,0,0,0-1.414,1.414L14.586,49l-3.293,3.293A1,1,0,0,0,11.293,53.707Z"/></g></svg>
